<?xml version="1.0" encoding="iso-8859-1"?>
<!-- Generator: Adobe Illustrator 19.0.0, SVG Export Plug-In . SVG Version: 6.00 Build 0)  -->
<svg version="1.1" id="Capa_1" xmlns="http://www.w3.org/2000/svg" xmlns:xlink="http://www.w3.org/1999/xlink" x="0px" y="0px"
	 viewBox="0 0 503.607 503.607" style="enable-background:new 0 0 503.607 503.607;" xml:space="preserve">
<g>
	<g>
		<g>
			<path d="M102.942,348.328h20.74c1.225,0,2.216-0.999,2.216-2.224v-62.699c0-1.225-0.99-2.224-2.216-2.224h-20.74
				c-1.225,0-2.224,0.999-2.224,2.224v62.699C100.718,347.329,101.717,348.328,102.942,348.328z"/>
			<path d="M67.148,407.079h369.311V222.423H67.148V407.079z M377.705,272.784c0-4.633,3.76-8.393,8.393-8.393h25.18
				c4.633,0,8.393,3.76,8.393,8.393c0,4.642-3.76,8.393-8.393,8.393h-16.787v25.18h16.787c4.633,0,8.393,3.76,8.393,8.393
				c0,4.642-3.76,8.393-8.393,8.393h-16.787v25.18h16.787c4.633,0,8.393,3.76,8.393,8.393c0,4.642-3.76,8.393-8.393,8.393h-25.18
				c-4.633,0-8.393-3.752-8.393-8.393V272.784z M310.557,294.069c0-16.367,13.312-29.679,29.679-29.679h12.288
				c4.633,0,8.393,3.76,8.393,8.393c0,4.642-3.76,8.393-8.393,8.393h-12.288c-7.109,0-12.892,5.783-12.892,12.892v41.371
				c0,7.101,5.783,12.884,12.892,12.884h12.288c4.633,0,8.393,3.76,8.393,8.393c0,4.642-3.76,8.393-8.393,8.393h-12.288
				c-16.367,0-29.679-13.312-29.679-29.671V294.069z M276.984,272.784c0-4.633,3.76-8.393,8.393-8.393s8.393,3.76,8.393,8.393
				v83.934c0,4.642-3.76,8.393-8.393,8.393s-8.393-3.752-8.393-8.393V272.784z M218.229,272.784c0-4.633,3.76-8.393,8.393-8.393
				h25.18c4.633,0,8.393,3.76,8.393,8.393c0,4.642-3.76,8.393-8.393,8.393h-16.787v25.18h16.787c4.633,0,8.393,3.76,8.393,8.393
				c0,4.642-3.76,8.393-8.393,8.393h-16.787v33.574c0,4.642-3.76,8.393-8.393,8.393s-8.393-3.752-8.393-8.393V272.784z
				 M159.475,272.784c0-4.633,3.76-8.393,8.393-8.393h25.18c4.633,0,8.393,3.76,8.393,8.393c0,4.642-3.76,8.393-8.393,8.393h-16.787
				v25.18h16.787c4.633,0,8.393,3.76,8.393,8.393c0,4.642-3.76,8.393-8.393,8.393h-16.787v33.574c0,4.642-3.76,8.393-8.393,8.393
				c-4.633,0-8.393-3.752-8.393-8.393V272.784z M83.934,283.401c0-10.483,8.528-19.011,19.011-19.011h20.732
				c10.483,0,19.011,8.528,19.011,19.011v62.707c0,10.475-8.528,19.003-19.011,19.003h-20.732c-10.483,0-19.011-8.528-19.011-19.003
				V283.401z"/>
			<path d="M495.213,155.279H422.66c-13.564-11.054-83.934-67.979-129.385-97.213c-2.384-16.183-16.241-28.689-33.079-28.689
				s-30.695,12.506-33.079,28.689C181.668,87.3,111.297,144.225,97.733,155.279H8.393c-4.633,0-8.393,3.76-8.393,8.393v302.164
				c0,4.633,3.76,8.393,8.393,8.393h486.82c4.633,0,8.393-3.76,8.393-8.393V163.672
				C503.607,159.039,499.846,155.279,495.213,155.279z M260.197,46.164c9.258,0,16.787,7.529,16.787,16.787
				c0,9.258-7.529,16.787-16.787,16.787c-9.258,0-16.787-7.529-16.787-16.787C243.41,53.693,250.939,46.164,260.197,46.164z
				 M229.544,76.515c5.229,11.768,16.98,20.01,30.653,20.01s25.424-8.242,30.653-20.01c33.977,22.662,79.864,58.637,105.044,78.764
				H124.5C149.68,135.151,195.567,99.177,229.544,76.515z M453.246,415.475c0,4.633-3.76,8.393-8.393,8.393H58.754
				c-4.633,0-8.393-3.76-8.393-8.393V214.033c0-4.633,3.76-8.393,8.393-8.393h386.098c4.633,0,8.393,3.76,8.393,8.393V415.475z"/>
		</g>
	</g>
</g>
<g>
</g>
<g>
</g>
<g>
</g>
<g>
</g>
<g>
</g>
<g>
</g>
<g>
</g>
<g>
</g>
<g>
</g>
<g>
</g>
<g>
</g>
<g>
</g>
<g>
</g>
<g>
</g>
<g>
</g>
</svg>
