<?xml version="1.0" encoding="UTF-8"?>
<svg width="40px" height="40px" viewBox="0 0 40 40" version="1.1" xmlns="http://www.w3.org/2000/svg" xmlns:xlink="http://www.w3.org/1999/xlink">
    <!-- Generator: Sketch 42 (36781) - http://www.bohemiancoding.com/sketch -->
    <title>Progression_35</title>
    <desc>Created with Sketch.</desc>
    <defs></defs>
    <g id="Page-1" stroke="none" stroke-width="1" fill="none" fill-rule="evenodd">
        <g id="Progression_35" fill-rule="nonzero">
            <g id="Page-1">
                <g id="Segments-circle" transform="translate(0.000000, 0.099502)">
                    <g id="35">
                        <path d="M19.9004975,0 C21.9880597,0 24.0636816,0.328358209 26.0497512,0.973134328 L19.9004975,19.9004975 L19.9004975,0 Z M26.0497512,0.973134328 C28.0358209,1.61791045 29.9084577,2.57313433 31.59801,3.80099502 L19.9004975,19.9004975 L26.0497512,0.973134328 Z M31.59801,3.80099502 C33.2875622,5.02885572 34.7721393,6.51343284 36,8.20298507 L19.9004975,19.9004975 L31.59801,3.80099502 Z M36,8.20298507 C37.2278607,9.89253731 38.1830846,11.7651741 38.8278607,13.7512438 L19.9004975,19.9004975 L36,8.20298507 Z M38.8278607,13.7512438 C39.4726368,15.7373134 39.800995,17.8129353 39.800995,19.9004975 L19.9004975,19.9004975 L38.8278607,13.7512438 Z M39.800995,19.9004975 C39.800995,21.9880597 39.4726368,24.0636816 38.8278607,26.0497512 L19.9004975,19.9004975 L39.800995,19.9004975 Z M38.8278607,26.0497512 C38.1830846,28.0358209 37.2278607,29.9084577 36,31.59801 L19.9004975,19.9004975 L38.8278607,26.0497512 Z M36,31.59801 C34.7721393,33.2875622 33.2875622,34.7721393 31.59801,36 L19.9004975,19.9004975 L36,31.59801 Z M31.59801,36 C29.9084577,37.2278607 28.0358209,38.1830846 26.0497512,38.8278607 L19.9004975,19.9004975 L31.59801,36 Z M26.0497512,38.8278607 C24.0636816,39.4726368 21.9880597,39.800995 19.9004975,39.800995 L19.9004975,19.9004975 L26.0497512,38.8278607 Z M19.9004975,39.800995 C17.8129353,39.800995 15.7373134,39.4726368 13.7512438,38.8278607 L19.9004975,19.9004975 L19.9004975,39.800995 Z M13.7512438,38.8278607 C11.7651741,38.1830846 9.89253731,37.2278607 8.20298507,36 L19.9004975,19.9004975 L13.7512438,38.8278607 Z M8.20298507,36 C6.51343284,34.7721393 5.02885572,33.2875622 3.80099502,31.59801 L19.9004975,19.9004975 L8.20298507,36 Z M3.80099502,31.59801 C2.57313433,29.9084577 1.61791045,28.0358209 0.973134328,26.0497512 L19.9004975,19.9004975 L3.80099502,31.59801 Z M0.973134328,26.0497512 C0.328358209,24.0636816 0,21.9880597 0,19.9004975 L19.9004975,19.9004975 L0.973134328,26.0497512 Z M0,19.9004975 C0,17.8129353 0.328358209,15.7373134 0.973134328,13.7512438 L19.9004975,19.9004975 L0,19.9004975 Z M0.973134328,13.7512438 C1.61791045,11.7651741 2.57313433,9.89253731 3.80099502,8.20298507 L19.9004975,19.9004975 L0.973134328,13.7512438 Z M3.80099502,8.20298507 C5.02885572,6.51343284 6.51343284,5.02885572 8.20298507,3.80099502 L19.9004975,19.9004975 L3.80099502,8.20298507 Z M8.20298507,3.80099502 C9.89253731,2.57313433 11.7651741,1.61791045 13.7512438,0.973134328 L19.9004975,19.9004975 L8.20298507,3.80099502 Z M13.7512438,0.973134328 C15.7373134,0.328358209 17.8129353,0 19.9004975,0 L19.9004975,19.9004975 L13.7512438,0.973134328 Z" id="0%-copy-2" fill="#D8D8D8"></path>
                        <path d="M19.9004975,0 C21.9880597,0 24.0636816,0.328358209 26.0497512,0.973134328 L19.9004975,19.9004975 L19.9004975,0 Z M26.0497512,0.973134328 C28.0358209,1.61791045 29.9084577,2.57313433 31.59801,3.80099502 L19.9004975,19.9004975 L26.0497512,0.973134328 Z M31.59801,3.80099502 C33.2875622,5.02885572 34.7721393,6.51343284 36,8.20298507 L19.9004975,19.9004975 L31.59801,3.80099502 Z M36,8.20298507 C37.2278607,9.89253731 38.1830846,11.7651741 38.8278607,13.7512438 L19.9004975,19.9004975 L36,8.20298507 Z M38.8278607,13.7512438 C39.4726368,15.7373134 39.800995,17.8129353 39.800995,19.9004975 L19.9004975,19.9004975 L38.8278607,13.7512438 Z M39.800995,19.9004975 C39.800995,21.9880597 39.4726368,24.0636816 38.8278607,26.0497512 L19.9004975,19.9004975 L39.800995,19.9004975 Z M38.8278607,26.0497512 C38.1830846,28.0358209 37.2278607,29.9084577 36,31.59801 L19.9004975,19.9004975 L38.8278607,26.0497512 Z" id="35%" fill="#666666"></path>
                    </g>
                </g>
            </g>
        </g>
    </g>
</svg>