<?xml version="1.0" encoding="iso-8859-1"?>
<!-- Generator: Adobe Illustrator 16.0.0, SVG Export Plug-In . SVG Version: 6.00 Build 0)  -->
<!DOCTYPE svg PUBLIC "-//W3C//DTD SVG 1.1//EN" "http://www.w3.org/Graphics/SVG/1.1/DTD/svg11.dtd">
<svg version="1.1" id="Capa_1" xmlns="http://www.w3.org/2000/svg" xmlns:xlink="http://www.w3.org/1999/xlink" x="0px" y="0px"
	 width="522.753px" height="522.752px" viewBox="0 0 522.753 522.752" style="enable-background:new 0 0 522.753 522.752;"
	 xml:space="preserve">
<g>
	<path d="M151.891,58.183c0-13.072-10.595-23.677-23.677-23.677h-80.87C21.2,34.506,0,53.937,0,77.901
		c0,23.973,21.2,43.404,47.344,43.404h80.87c13.072,0,23.677-10.595,23.677-23.677V58.183z"/>
	<path d="M337.317,58.183c0-13.072-10.596-23.677-23.677-23.677H209.104c-13.072,0-23.677,10.595-23.677,23.677v39.455
		c0,13.072,10.595,23.677,23.677,23.677H313.65c13.071,0,23.677-10.595,23.677-23.677V58.183H337.317z"/>
	<path d="M475.409,34.516h-80.87c-13.071,0-23.677,10.595-23.677,23.677v39.455c0,13.072,10.596,23.677,23.677,23.677h80.87
		c26.145,0,47.344-19.431,47.344-43.404S501.553,34.516,475.409,34.516z"/>
	<path d="M151.891,180.497c0-13.072-10.595-23.677-23.677-23.677h-80.87C21.2,156.82,0,176.251,0,200.215
		c0,23.973,21.2,43.395,47.344,43.395h80.87c13.072,0,23.677-10.595,23.677-23.677V180.497z"/>
	<path d="M337.317,180.497c0-13.072-10.596-23.677-23.677-23.677H209.104c-13.072,0-23.677,10.595-23.677,23.677v39.445
		c0,13.072,10.595,23.677,23.677,23.677H313.65c13.071,0,23.677-10.596,23.677-23.677v-39.445H337.317z"/>
	<path d="M475.409,156.83h-80.87c-13.071,0-23.677,10.595-23.677,23.677v39.445c0,13.072,10.596,23.677,23.677,23.677h80.87
		c26.145,0,47.344-19.421,47.344-43.395S501.553,156.83,475.409,156.83z"/>
	<path d="M151.891,302.801c0-13.072-10.595-23.677-23.677-23.677h-80.87C21.2,279.125,0,298.545,0,322.51
		c0,23.973,21.2,43.404,47.344,43.404h80.87c13.072,0,23.677-10.596,23.677-23.678V302.801z"/>
	<path d="M337.317,302.801c0-13.072-10.596-23.677-23.677-23.677H209.104c-13.072,0-23.677,10.595-23.677,23.677v39.445
		c0,13.072,10.595,23.678,23.677,23.678H313.65c13.071,0,23.677-10.596,23.677-23.678v-39.445H337.317z"/>
	<path d="M475.409,279.134h-80.87c-13.071,0-23.677,10.595-23.677,23.677v39.445c0,13.072,10.596,23.676,23.677,23.676h80.87
		c26.145,0,47.344-19.43,47.344-43.404C522.753,298.555,501.553,279.134,475.409,279.134z"/>
	<path d="M128.214,401.438h-80.87C21.2,401.438,0,420.87,0,444.833c0,23.975,21.2,43.404,47.344,43.404h80.87
		c13.072,0,23.677-10.604,23.677-23.676v-39.455C151.891,412.034,141.286,401.438,128.214,401.438z"/>
	<path d="M313.65,401.438H209.104c-13.072,0-23.677,10.596-23.677,23.678v39.455c0,13.062,10.595,23.676,23.677,23.676H313.65
		c13.071,0,23.677-10.605,23.677-23.676v-39.455C337.317,412.034,326.722,401.438,313.65,401.438z"/>
	<path d="M475.409,401.438h-80.87c-13.071,0-23.677,10.596-23.677,23.678v39.455c0,13.062,10.596,23.676,23.677,23.676h80.87
		c26.145,0,47.344-19.432,47.344-43.404S501.553,401.438,475.409,401.438z"/>
</g>
<g>
</g>
<g>
</g>
<g>
</g>
<g>
</g>
<g>
</g>
<g>
</g>
<g>
</g>
<g>
</g>
<g>
</g>
<g>
</g>
<g>
</g>
<g>
</g>
<g>
</g>
<g>
</g>
<g>
</g>
</svg>
