<?xml version="1.0" encoding="iso-8859-1"?>
<!-- Generator: Adobe Illustrator 17.1.0, SVG Export Plug-In . SVG Version: 6.00 Build 0)  -->
<!DOCTYPE svg PUBLIC "-//W3C//DTD SVG 1.1//EN" "http://www.w3.org/Graphics/SVG/1.1/DTD/svg11.dtd">
<svg version="1.1" id="Capa_1" xmlns="http://www.w3.org/2000/svg" xmlns:xlink="http://www.w3.org/1999/xlink" x="0px" y="0px"
	 viewBox="0 0 204.255 204.255" style="enable-background:new 0 0 204.255 204.255;" xml:space="preserve">
<path d="M85.293,64.147V16.214C85.293,7.273,92.766,0,101.951,0h0.236c9.185,0,16.658,7.273,16.658,16.214v47.934
	c0,8.94-7.473,16.215-16.658,16.215h-0.236C92.766,80.362,85.293,73.088,85.293,64.147z M167.631,46.534
	c-3.186-3.197-7.436-4.958-11.967-4.958c-4.271,0-8.358,1.59-11.508,4.477c-3.418,3.133-5.362,7.411-5.474,12.046
	c-0.112,4.652,1.717,9.233,5.019,12.567c11.177,11.29,17.182,26.259,16.908,42.149c-0.532,30.765-25,55.973-55.704,57.389
	c-0.923,0.043-1.857,0.064-2.778,0.064c-15.623,0.001-30.311-6.083-41.358-17.131c-11.047-11.047-17.131-25.735-17.131-41.358
	c0-15.539,6.037-30.17,16.999-41.197c3.308-3.328,5.07-7.738,4.961-12.418c-0.108-4.658-2.06-8.959-5.5-12.112
	c-3.151-2.889-7.24-4.479-11.513-4.479c-4.522,0-8.765,1.756-11.944,4.945C19.257,63.947,9.673,87.097,9.652,111.701
	c-0.02,23.467,9.298,46.102,26.236,63.739c16.945,17.644,39.188,27.852,62.629,28.745c1.199,0.046,2.414,0.069,3.61,0.069
	c0.002,0-0.001,0,0.001,0c24.7,0,47.924-9.62,65.389-27.085c17.466-17.467,27.086-40.689,27.086-65.391
	C194.603,87.153,185.023,63.981,167.631,46.534z" fill="#ff0000" />
<g>
</g>
<g>
</g>
<g>
</g>
<g>
</g>
<g>
</g>
<g>
</g>
<g>
</g>
<g>
</g>
<g>
</g>
<g>
</g>
<g>
</g>
<g>
</g>
<g>
</g>
<g>
</g>
<g>
</g>
</svg>
